<?xml version="1.0" encoding="UTF-8"?>
<svg id="Layer_1" data-name="Layer 1" xmlns="http://www.w3.org/2000/svg" viewBox="0 0 744.26 577.53">
  <defs>
    <style>
      .cls-1 {
        fill: #fff;
      }
    </style>
  </defs>
  <path class="cls-1" d="M372.13,0c-115.96,0-210.31,94.34-210.31,210.3s94.34,210.31,210.31,210.31,210.3-94.34,210.3-210.31S488.09,0,372.13,0ZM560.43,131.24l-105.57,42.52c-4.07-9.3-9.66-17.76-16.67-25.19l80.4-80.4c17.59,18.12,31.89,39.46,41.84,63.07ZM514.3,63.88l-80.39,80.39c-6.95-6.57-14.89-11.94-23.67-16.01l44.5-104.67c22.21,9.87,42.35,23.57,59.56,40.29ZM375.07,6.15c26.17.37,51.16,5.68,74.09,15.05l-44.51,104.69c-9.43-3.65-19.33-5.66-29.58-5.99V6.15ZM405.09,132.6c10.12,4.29,19.1,10.36,26.71,18.08,8.15,8.1,14.41,17.56,18.62,28.17,1.07,2.59,1.97,5.28,2.77,8-5.76,1.97-11.72,4.39-18.07,7.37-1.87.87-3.72,1.71-5.57,2.52-6.44-2.24-12.59-5-18.54-7.69-15.8-7.15-30.72-13.9-48.98-10.05-19.49,4.1-45.66,17.5-51.43,20.52-.7-.24-1.42-.49-2.12-.73-6.46-2.22-12.75-4.38-18.79-6.43,3.39-15.73,11.14-30.08,22.61-41.6,7.96-8.01,17.22-14.21,27.55-18.44l.61-.23c10.01-4.12,20.62-6.2,31.66-6.2s22.53,2.25,32.96,6.7ZM421.41,200.16c-29.53,11.85-54.52,16.07-58.58,16.7-14.5-4.5-29.55-9.57-44.22-14.59,9.96-4.95,29.74-14.18,44.68-17.33,16.32-3.43,30.36,2.92,45.22,9.64,4.18,1.89,8.46,3.8,12.9,5.58ZM368.99,6.15v113.75c-9.64.32-19.04,2.17-28.01,5.51l-42.56-105.52c21.96-8.53,45.73-13.36,70.57-13.74ZM292.77,22.12l42.57,105.56c-9.27,4.09-17.7,9.7-25.14,16.7l-80.38-80.38c18.08-17.59,39.37-31.9,62.94-41.88ZM225.55,68.3l80.41,80.41c-6.58,7.06-11.93,15.01-15.91,23.61l-104.66-44.54c9.84-22.18,23.5-42.28,40.17-59.48ZM182.99,133.37l104.69,44.56c-1.55,4.05-2.81,8.22-3.76,12.5-22.67-7.58-41.11-13.11-50.31-13.11-22.9,0-53.64,19.06-65.57,27.09.72-25.06,5.95-49,14.94-71.03ZM169.8,237.81h58.71l-50.9,34.7c-3.58-11.18-6.2-22.78-7.82-34.7ZM179.64,278.48l59.65-40.67h24.85l-67.25,77.25c-6.9-11.51-12.69-23.75-17.25-36.58ZM200.27,320.43l71.93-82.62h21.5l-62.42,120.17c-11.76-11.22-22.18-23.82-31.01-37.55ZM235.88,362.28l64.66-124.47h19.69l-43.85,152.82c-14.65-7.81-28.24-17.34-40.49-28.34ZM281.88,393.45l44.66-155.64h18.61l-20.97,170.99c-14.79-3.57-28.95-8.74-42.3-15.35ZM369.1,414.46c-13.33-.2-26.36-1.64-38.97-4.29l21.13-172.36h17.83v176.65ZM169.03,231.74c-.69-6.54-1.04-13.18-1.09-19.89,7.05-4.94,41.92-28.47,65.68-28.47,11.34,0,41.25,10.28,72.91,21.16,28.9,9.93,60.23,20.68,86.69,27.2h-224.18ZM375.17,414.46v-176.65h17.83l21.13,172.36c-12.6,2.65-25.63,4.09-38.97,4.29ZM420.08,408.8l-20.97-170.99h18.61l44.66,155.64c-13.35,6.6-27.51,11.77-42.3,15.35ZM467.89,390.63l-43.85-152.82h19.69l64.66,124.47c-12.26,11-25.85,20.53-40.49,28.34ZM512.99,357.98l-62.42-120.17h21.5l71.93,82.62c-8.83,13.73-19.25,26.33-31.01,37.55ZM547.37,315.06l-67.25-77.25h24.85l59.65,40.67c-4.56,12.83-10.34,25.07-17.25,36.58ZM566.64,272.51l-50.9-34.7h58.71c-1.61,11.92-4.23,23.52-7.82,34.7ZM575.23,231.74h-142.84c-14.31,0-34.61-4.58-57.02-11.1,13.75-2.99,37.38-9.25,62.34-20.92,37.77-17.71,61.25-17.02,100.43,2.94,12.69,6.51,25.44,12.55,37.96,18.01-.19,3.72-.48,7.41-.87,11.08ZM540.9,197.25c-31.93-16.25-54.64-20.16-81.92-12.23-.56-1.91-1.19-3.78-1.88-5.62l105.55-42.5c8.82,22.8,13.7,47.54,13.7,73.41,0,1.27-.07,2.52-.1,3.79-11.68-5.15-23.55-10.79-35.37-16.85Z"/>
  <g>
    <g>
      <path class="cls-1" d="M90.38,460.22l-19.24,58.04h-11.44l-14.34-42.95-14.59,42.95h-11.53L0,460.22h11.19l14.43,44.11,15.01-44.11h9.95l14.68,44.36,14.84-44.36h10.28Z"/>
      <path class="cls-1" d="M134.99,504.83h-29.02l-5.72,13.43h-11.11l26.12-58.04h10.61l26.2,58.04h-11.28l-5.8-13.43ZM131.42,496.37l-10.95-25.37-10.86,25.37h21.81Z"/>
      <path class="cls-1" d="M168.32,469.34h-19.24v-9.12h49.25v9.12h-19.24v48.92h-10.78v-48.92Z"/>
      <path class="cls-1" d="M249.99,509.22v9.04h-43.53v-58.04h42.37v9.04h-31.59v15.09h28.02v8.87h-28.02v16h32.75Z"/>
      <path class="cls-1" d="M299.99,518.26l-11.86-17c-.5.06-1.24.08-2.24.08h-13.1v16.92h-10.78v-58.04h23.88c5.03,0,9.41.83,13.14,2.49,3.73,1.66,6.59,4.04,8.58,7.13,1.99,3.1,2.98,6.77,2.98,11.03s-1.06,8.12-3.19,11.28c-2.13,3.15-5.18,5.5-9.16,7.05l13.35,19.07h-11.61ZM296.1,472.32c-2.43-1.99-6-2.99-10.7-2.99h-12.6v23.14h12.6c4.7,0,8.26-1.01,10.7-3.03,2.43-2.02,3.65-4.88,3.65-8.58s-1.22-6.55-3.65-8.54Z"/>
      <path class="cls-1" d="M357.29,469.34h-19.24v-9.12h49.25v9.12h-19.24v48.92h-10.78v-48.92Z"/>
      <path class="cls-1" d="M433.41,518.26l-11.86-17c-.5.06-1.24.08-2.24.08h-13.1v16.92h-10.78v-58.04h23.88c5.03,0,9.41.83,13.14,2.49s6.59,4.04,8.58,7.13c1.99,3.1,2.98,6.77,2.98,11.03s-1.06,8.12-3.19,11.28c-2.13,3.15-5.18,5.5-9.16,7.05l13.35,19.07h-11.61ZM429.51,472.32c-2.43-1.99-6-2.99-10.7-2.99h-12.6v23.14h12.6c4.7,0,8.26-1.01,10.7-3.03,2.43-2.02,3.65-4.88,3.65-8.58s-1.22-6.55-3.65-8.54Z"/>
      <path class="cls-1" d="M493.69,504.83h-29.02l-5.72,13.43h-11.11l26.12-58.04h10.61l26.2,58.04h-11.28l-5.8-13.43ZM490.12,496.37l-10.95-25.37-10.86,25.37h21.81Z"/>
      <path class="cls-1" d="M518.15,460.22h25.37c6.19,0,11.69,1.2,16.5,3.61,4.81,2.4,8.54,5.8,11.19,10.2,2.65,4.4,3.98,9.47,3.98,15.22s-1.33,10.82-3.98,15.22c-2.65,4.39-6.38,7.79-11.19,10.2-4.81,2.4-10.31,3.61-16.5,3.61h-25.37v-58.04ZM543.02,509.14c4.26,0,8-.82,11.24-2.45,3.23-1.63,5.72-3.95,7.46-6.96,1.74-3.01,2.61-6.51,2.61-10.49s-.87-7.47-2.61-10.49c-1.74-3.01-4.23-5.33-7.46-6.96-3.23-1.63-6.98-2.45-11.24-2.45h-14.1v39.8h14.1Z"/>
      <path class="cls-1" d="M630.17,509.22v9.04h-43.53v-58.04h42.37v9.04h-31.59v15.09h28.02v8.87h-28.02v16h32.75Z"/>
      <path class="cls-1" d="M680.17,518.26l-11.86-17c-.5.06-1.24.08-2.24.08h-13.1v16.92h-10.78v-58.04h23.88c5.03,0,9.41.83,13.14,2.49,3.73,1.66,6.59,4.04,8.58,7.13,1.99,3.1,2.98,6.77,2.98,11.03s-1.06,8.12-3.19,11.28c-2.13,3.15-5.18,5.5-9.16,7.05l13.35,19.07h-11.61ZM676.27,472.32c-2.43-1.99-6-2.99-10.7-2.99h-12.6v23.14h12.6c4.7,0,8.26-1.01,10.7-3.03,2.43-2.02,3.65-4.88,3.65-8.58s-1.22-6.55-3.65-8.54Z"/>
      <path class="cls-1" d="M707.82,517.18c-4.17-1.27-7.48-2.96-9.91-5.06l3.73-8.38c2.38,1.88,5.29,3.41,8.75,4.6,3.45,1.19,6.92,1.78,10.41,1.78,4.31,0,7.53-.69,9.66-2.07,2.13-1.38,3.19-3.21,3.19-5.47,0-1.66-.59-3.03-1.78-4.11-1.19-1.08-2.69-1.92-4.52-2.53-1.82-.61-4.31-1.3-7.46-2.07-4.42-1.05-8-2.1-10.74-3.15-2.74-1.05-5.09-2.69-7.05-4.93-1.96-2.24-2.94-5.26-2.94-9.08,0-3.21.87-6.12,2.61-8.75,1.74-2.62,4.37-4.71,7.88-6.26,3.51-1.54,7.81-2.32,12.89-2.32,3.54,0,7.02.44,10.45,1.33,3.43.88,6.39,2.16,8.87,3.81l-3.4,8.38c-2.54-1.49-5.2-2.62-7.96-3.4-2.76-.77-5.45-1.16-8.04-1.16-4.26,0-7.42.72-9.49,2.16-2.07,1.44-3.11,3.34-3.11,5.72,0,1.66.59,3.02,1.78,4.06s2.7,1.88,4.52,2.49c1.82.61,4.31,1.3,7.46,2.07,4.31.99,7.85,2.03,10.61,3.11,2.76,1.08,5.13,2.72,7.09,4.93,1.96,2.21,2.94,5.19,2.94,8.95,0,3.21-.87,6.11-2.61,8.71-1.74,2.6-4.38,4.67-7.92,6.22-3.54,1.54-7.85,2.32-12.93,2.32-4.48,0-8.8-.64-12.98-1.91Z"/>
    </g>
    <g>
      <path class="cls-1" d="M104.38,553.07v8.6h11.32v2h-11.32v9.29h-2.31v-21.89h15.01v2h-12.7Z"/>
      <path class="cls-1" d="M136.82,572.96l-5-7.04c-.56.06-1.15.09-1.75.09h-5.88v6.94h-2.31v-21.89h8.2c2.79,0,4.98.67,6.57,2,1.58,1.33,2.38,3.17,2.38,5.5,0,1.71-.43,3.15-1.3,4.33-.87,1.18-2.1,2.03-3.71,2.55l5.35,7.51h-2.53ZM134.97,562.61c1.15-.96,1.72-2.3,1.72-4.03s-.57-3.13-1.72-4.08c-1.15-.95-2.8-1.42-4.97-1.42h-5.82v10.98h5.82c2.17,0,3.83-.48,4.97-1.44Z"/>
      <path class="cls-1" d="M148.16,571.7c-1.76-.97-3.14-2.3-4.13-3.99-.99-1.69-1.49-3.59-1.49-5.69s.5-4,1.49-5.69c.99-1.69,2.37-3.02,4.13-3.99,1.76-.97,3.73-1.45,5.9-1.45s4.12.48,5.86,1.44c1.74.96,3.11,2.29,4.11,3.99,1,1.7,1.5,3.6,1.5,5.71s-.5,4.01-1.5,5.71c-1,1.7-2.37,3.03-4.11,3.99-1.74.96-3.7,1.44-5.86,1.44s-4.13-.49-5.9-1.45ZM158.74,569.91c1.4-.78,2.49-1.87,3.28-3.25.79-1.39,1.19-2.93,1.19-4.64s-.4-3.26-1.19-4.64c-.79-1.39-1.89-2.47-3.28-3.25-1.4-.78-2.96-1.17-4.69-1.17s-3.3.39-4.71,1.17-2.51,1.87-3.32,3.25c-.8,1.39-1.2,2.93-1.2,4.64s.4,3.26,1.2,4.64c.8,1.39,1.91,2.47,3.32,3.25s2.98,1.17,4.71,1.17,3.29-.39,4.69-1.17Z"/>
      <path class="cls-1" d="M193.46,551.07v21.89h-2.22v-17.51l-8.6,14.73h-1.09l-8.6-14.64v17.42h-2.22v-21.89h1.91l9.51,16.23,9.41-16.23h1.91Z"/>
      <path class="cls-1" d="M224.21,562.02h2.22v8.35c-1.02.9-2.23,1.59-3.63,2.06-1.4.48-2.87.72-4.41.72-2.19,0-4.16-.48-5.91-1.44-1.75-.96-3.13-2.29-4.13-3.99-1-1.7-1.5-3.6-1.5-5.71s.5-4.01,1.5-5.71c1-1.7,2.38-3.03,4.13-3.99,1.75-.96,3.73-1.44,5.94-1.44,1.67,0,3.2.27,4.6.8,1.4.53,2.57,1.32,3.53,2.36l-1.44,1.47c-1.73-1.71-3.93-2.56-6.6-2.56-1.77,0-3.37.39-4.8,1.17s-2.55,1.87-3.36,3.25c-.81,1.39-1.22,2.93-1.22,4.64s.41,3.25,1.22,4.63c.81,1.38,1.93,2.46,3.35,3.25,1.42.79,3.01,1.19,4.79,1.19,2.25,0,4.16-.56,5.72-1.69v-7.38Z"/>
      <path class="cls-1" d="M247.91,572.96l-5-7.04c-.56.06-1.15.09-1.75.09h-5.88v6.94h-2.31v-21.89h8.2c2.79,0,4.98.67,6.57,2,1.59,1.33,2.38,3.17,2.38,5.5,0,1.71-.43,3.15-1.3,4.33-.87,1.18-2.1,2.03-3.71,2.55l5.35,7.51h-2.53ZM246.07,562.61c1.15-.96,1.72-2.3,1.72-4.03s-.57-3.13-1.72-4.08c-1.15-.95-2.8-1.42-4.97-1.42h-5.82v10.98h5.82c2.17,0,3.83-.48,4.97-1.44Z"/>
      <path class="cls-1" d="M259.25,571.7c-1.76-.97-3.14-2.3-4.13-3.99-.99-1.69-1.49-3.59-1.49-5.69s.5-4,1.49-5.69c.99-1.69,2.37-3.02,4.13-3.99,1.76-.97,3.73-1.45,5.9-1.45s4.12.48,5.86,1.44c1.74.96,3.11,2.29,4.11,3.99,1,1.7,1.5,3.6,1.5,5.71s-.5,4.01-1.5,5.71c-1,1.7-2.37,3.03-4.11,3.99-1.74.96-3.7,1.44-5.86,1.44s-4.13-.49-5.9-1.45ZM269.84,569.91c1.4-.78,2.49-1.87,3.28-3.25.79-1.39,1.19-2.93,1.19-4.64s-.4-3.26-1.19-4.64c-.79-1.39-1.89-2.47-3.28-3.25-1.4-.78-2.96-1.17-4.69-1.17s-3.3.39-4.71,1.17-2.51,1.87-3.32,3.25c-.8,1.39-1.2,2.93-1.2,4.64s.4,3.26,1.2,4.64c.8,1.39,1.91,2.47,3.32,3.25s2.98,1.17,4.71,1.17,3.29-.39,4.69-1.17Z"/>
      <path class="cls-1" d="M311.22,551.07l-7.38,21.89h-2.44l-6.41-18.67-6.44,18.67h-2.41l-7.38-21.89h2.38l6.32,18.83,6.54-18.83h2.16l6.44,18.92,6.41-18.92h2.22Z"/>
      <path class="cls-1" d="M330.92,570.96v2h-15.48v-21.89h15.01v2h-12.7v7.79h11.32v1.97h-11.32v8.13h13.17Z"/>
      <path class="cls-1" d="M351.32,572.96l-5-7.04c-.56.06-1.15.09-1.75.09h-5.88v6.94h-2.31v-21.89h8.2c2.79,0,4.98.67,6.57,2,1.58,1.33,2.38,3.17,2.38,5.5,0,1.71-.43,3.15-1.3,4.33-.87,1.18-2.1,2.03-3.71,2.55l5.35,7.51h-2.53ZM349.47,562.61c1.15-.96,1.72-2.3,1.72-4.03s-.57-3.13-1.72-4.08c-1.15-.95-2.8-1.42-4.97-1.42h-5.82v10.98h5.82c2.17,0,3.83-.48,4.97-1.44Z"/>
      <path class="cls-1" d="M360.34,572.37c-1.49-.52-2.64-1.21-3.46-2.06l.91-1.78c.79.79,1.85,1.43,3.16,1.92,1.31.49,2.67.74,4.07.74,1.96,0,3.43-.36,4.41-1.08.98-.72,1.47-1.65,1.47-2.8,0-.88-.27-1.57-.8-2.1-.53-.52-1.18-.92-1.95-1.2-.77-.28-1.85-.59-3.22-.92-1.65-.42-2.96-.82-3.94-1.2-.98-.39-1.82-.97-2.52-1.77-.7-.79-1.05-1.87-1.05-3.22,0-1.1.29-2.11.88-3.02.58-.91,1.48-1.63,2.69-2.17,1.21-.54,2.71-.81,4.5-.81,1.25,0,2.48.17,3.67.52,1.2.34,2.24.82,3.11,1.42l-.78,1.85c-.92-.6-1.9-1.06-2.94-1.36-1.04-.3-2.06-.45-3.06-.45-1.92,0-3.36.37-4.33,1.11-.97.74-1.45,1.7-1.45,2.86,0,.88.27,1.58.8,2.11.53.53,1.2.94,2,1.22.8.28,1.88.59,3.24.92,1.61.4,2.9.79,3.89,1.17.99.39,1.83.97,2.52,1.75s1.03,1.84,1.03,3.17c0,1.1-.3,2.11-.89,3.02-.59.91-1.51,1.63-2.74,2.16-1.23.53-2.74.8-4.53.8-1.63,0-3.19-.26-4.68-.78Z"/>
      <path class="cls-1" d="M387.38,570.2c.31.32.47.73.47,1.2,0,.25-.04.52-.11.81-.07.29-.18.63-.33,1l-1.31,4.32h-1.5l1.06-4.53c-.33-.1-.6-.3-.81-.58-.21-.28-.31-.62-.31-1.02,0-.48.16-.88.47-1.2.31-.32.71-.48,1.19-.48s.88.16,1.19.48Z"/>
      <path class="cls-1" d="M403.55,553.07v8.6h11.32v2h-11.32v9.29h-2.31v-21.89h15.01v2h-12.7Z"/>
      <path class="cls-1" d="M424.43,571.7c-1.76-.97-3.14-2.3-4.13-3.99-.99-1.69-1.49-3.59-1.49-5.69s.5-4,1.49-5.69c.99-1.69,2.37-3.02,4.13-3.99,1.76-.97,3.73-1.45,5.9-1.45s4.12.48,5.86,1.44c1.74.96,3.11,2.29,4.11,3.99,1,1.7,1.5,3.6,1.5,5.71s-.5,4.01-1.5,5.71c-1,1.7-2.37,3.03-4.11,3.99-1.74.96-3.7,1.44-5.86,1.44s-4.13-.49-5.9-1.45ZM435.01,569.91c1.4-.78,2.49-1.87,3.28-3.25.79-1.39,1.19-2.93,1.19-4.64s-.4-3.26-1.19-4.64c-.79-1.39-1.89-2.47-3.28-3.25-1.4-.78-2.96-1.17-4.69-1.17s-3.3.39-4.71,1.17-2.51,1.87-3.32,3.25c-.8,1.39-1.2,2.93-1.2,4.64s.4,3.26,1.2,4.64c.8,1.39,1.91,2.47,3.32,3.25s2.98,1.17,4.71,1.17,3.29-.39,4.69-1.17Z"/>
      <path class="cls-1" d="M461.94,572.96l-5-7.04c-.56.06-1.15.09-1.75.09h-5.88v6.94h-2.31v-21.89h8.2c2.79,0,4.98.67,6.57,2,1.58,1.33,2.38,3.17,2.38,5.5,0,1.71-.43,3.15-1.3,4.33-.87,1.18-2.1,2.03-3.71,2.55l5.35,7.51h-2.53ZM460.1,562.61c1.15-.96,1.72-2.3,1.72-4.03s-.57-3.13-1.72-4.08c-1.15-.95-2.8-1.42-4.97-1.42h-5.82v10.98h5.82c2.17,0,3.83-.48,4.97-1.44Z"/>
      <path class="cls-1" d="M493.22,562.02h2.22v8.35c-1.02.9-2.23,1.59-3.63,2.06-1.4.48-2.87.72-4.41.72-2.19,0-4.16-.48-5.91-1.44-1.75-.96-3.13-2.29-4.13-3.99-1-1.7-1.5-3.6-1.5-5.71s.5-4.01,1.5-5.71c1-1.7,2.38-3.03,4.13-3.99,1.75-.96,3.73-1.44,5.94-1.44,1.67,0,3.2.27,4.6.8,1.4.53,2.57,1.32,3.53,2.36l-1.44,1.47c-1.73-1.71-3.93-2.56-6.6-2.56-1.77,0-3.37.39-4.8,1.17-1.43.78-2.55,1.87-3.36,3.25-.81,1.39-1.22,2.93-1.22,4.64s.41,3.25,1.22,4.63c.81,1.38,1.93,2.46,3.35,3.25,1.42.79,3.01,1.19,4.79,1.19,2.25,0,4.16-.56,5.72-1.69v-7.38Z"/>
      <path class="cls-1" d="M516.93,572.96l-5-7.04c-.56.06-1.15.09-1.75.09h-5.88v6.94h-2.31v-21.89h8.2c2.79,0,4.98.67,6.57,2,1.58,1.33,2.38,3.17,2.38,5.5,0,1.71-.43,3.15-1.3,4.33-.87,1.18-2.1,2.03-3.71,2.55l5.35,7.51h-2.53ZM515.08,562.61c1.15-.96,1.72-2.3,1.72-4.03s-.57-3.13-1.72-4.08c-1.15-.95-2.8-1.42-4.97-1.42h-5.82v10.98h5.82c2.17,0,3.83-.48,4.97-1.44Z"/>
      <path class="cls-1" d="M528.27,571.7c-1.76-.97-3.14-2.3-4.13-3.99-.99-1.69-1.49-3.59-1.49-5.69s.5-4,1.49-5.69c.99-1.69,2.37-3.02,4.13-3.99,1.76-.97,3.73-1.45,5.9-1.45s4.12.48,5.86,1.44c1.74.96,3.11,2.29,4.11,3.99,1,1.7,1.5,3.6,1.5,5.71s-.5,4.01-1.5,5.71c-1,1.7-2.37,3.03-4.11,3.99-1.74.96-3.7,1.44-5.86,1.44s-4.13-.49-5.9-1.45ZM538.85,569.91c1.4-.78,2.49-1.87,3.28-3.25.79-1.39,1.19-2.93,1.19-4.64s-.4-3.26-1.19-4.64c-.79-1.39-1.89-2.47-3.28-3.25-1.4-.78-2.96-1.17-4.69-1.17s-3.3.39-4.71,1.17c-1.41.78-2.51,1.87-3.32,3.25-.8,1.39-1.2,2.93-1.2,4.64s.4,3.26,1.2,4.64c.8,1.39,1.91,2.47,3.32,3.25,1.41.78,2.98,1.17,4.71,1.17s3.29-.39,4.69-1.17Z"/>
      <path class="cls-1" d="M580.23,551.07l-7.38,21.89h-2.44l-6.41-18.67-6.44,18.67h-2.41l-7.38-21.89h2.38l6.32,18.83,6.54-18.83h2.16l6.44,18.92,6.41-18.92h2.22Z"/>
      <path class="cls-1" d="M599.94,570.96v2h-15.48v-21.89h15.01v2h-12.7v7.79h11.32v1.97h-11.32v8.13h13.17Z"/>
      <path class="cls-1" d="M620.33,572.96l-5-7.04c-.56.06-1.15.09-1.75.09h-5.88v6.94h-2.31v-21.89h8.2c2.79,0,4.98.67,6.57,2,1.59,1.33,2.38,3.17,2.38,5.5,0,1.71-.43,3.15-1.3,4.33-.87,1.18-2.1,2.03-3.71,2.55l5.35,7.51h-2.53ZM618.48,562.61c1.15-.96,1.72-2.3,1.72-4.03s-.57-3.13-1.72-4.08c-1.15-.95-2.8-1.42-4.97-1.42h-5.82v10.98h5.82c2.17,0,3.83-.48,4.97-1.44Z"/>
      <path class="cls-1" d="M629.35,572.37c-1.49-.52-2.64-1.21-3.46-2.06l.91-1.78c.79.79,1.85,1.43,3.16,1.92,1.31.49,2.67.74,4.07.74,1.96,0,3.43-.36,4.41-1.08.98-.72,1.47-1.65,1.47-2.8,0-.88-.27-1.57-.8-2.1-.53-.52-1.18-.92-1.95-1.2-.77-.28-1.85-.59-3.22-.92-1.65-.42-2.96-.82-3.94-1.2-.98-.39-1.82-.97-2.52-1.77-.7-.79-1.05-1.87-1.05-3.22,0-1.1.29-2.11.88-3.02.58-.91,1.48-1.63,2.69-2.17,1.21-.54,2.71-.81,4.5-.81,1.25,0,2.48.17,3.67.52,1.2.34,2.24.82,3.11,1.42l-.78,1.85c-.92-.6-1.9-1.06-2.94-1.36-1.04-.3-2.06-.45-3.06-.45-1.92,0-3.36.37-4.33,1.11-.97.74-1.45,1.7-1.45,2.86,0,.88.27,1.58.8,2.11.53.53,1.2.94,2,1.22.8.28,1.88.59,3.24.92,1.61.4,2.9.79,3.89,1.17.99.39,1.83.97,2.52,1.75s1.03,1.84,1.03,3.17c0,1.1-.3,2.11-.89,3.02-.59.91-1.51,1.63-2.74,2.16-1.23.53-2.74.8-4.53.8-1.63,0-3.19-.26-4.68-.78Z"/>
    </g>
  </g>
</svg>