<?xml version="1.0" encoding="UTF-8"?>
<svg id="Layer_1" data-name="Layer 1" xmlns="http://www.w3.org/2000/svg" viewBox="0 0 557.39 557.39">
  <defs>
    <style>
      .cls-1 {
        fill: #0c4333;
      }

      .cls-2 {
        fill: #ffc90e;
      }

      .cls-3 {
        fill: #41aa4b;
      }

      .cls-4 {
        fill: #237529;
      }

      .cls-5 {
        fill: #ffed10;
      }
    </style>
  </defs>
  <path class="cls-2" d="M235.94,175.36c-13.68,5.61-25.96,13.83-36.51,24.44-15.2,15.27-25.47,34.28-29.96,55.13,8,2.71,16.34,5.57,24.9,8.52.93.32,1.87.64,2.81.96,7.64-4.01,42.32-21.76,68.15-27.2,24.2-5.09,43.97,3.85,64.9,13.32,7.88,3.57,16.03,7.22,24.57,10.19,2.45-1.08,4.91-2.18,7.38-3.34,8.41-3.94,16.32-7.15,23.94-9.77-1.06-3.61-2.25-7.17-3.67-10.61-5.59-14.06-13.88-26.6-24.68-37.33-10.09-10.23-21.99-18.28-35.4-23.96-13.83-5.9-28.52-8.88-43.68-8.88s-28.69,2.76-41.95,8.22l-.81.3Z"/>
  <path class="cls-4" d="M266.99,245.08c-19.8,4.17-46.01,16.4-59.21,22.96,19.44,6.66,39.38,13.38,58.6,19.34,5.37-.84,38.49-6.42,77.62-22.13-5.88-2.36-11.56-4.89-17.09-7.4-19.7-8.91-38.31-17.33-59.93-12.78Z"/>
  <path class="cls-4" d="M191.75,271.05c-41.96-14.42-81.59-28.04-96.62-28.04-31.49,0-77.69,31.18-87.04,37.72.07,8.89.54,17.69,1.45,26.36h297.09c-35.06-8.64-76.58-22.89-114.88-36.05Z"/>
  <path class="cls-4" d="M365.59,264.66c-33.07,15.46-64.39,23.76-82.61,27.72,29.7,8.65,56.61,14.71,75.57,14.71h189.3c.51-4.86.9-9.75,1.15-14.68-16.59-7.24-33.5-15.24-50.31-23.86-51.93-26.44-83.04-27.36-133.1-3.89Z"/>
  <path class="cls-5" d="M191,197.07l-106.55-106.55c-22.09,22.79-40.19,49.43-53.23,78.82l138.7,59.03c5.28-11.41,12.37-21.94,21.09-31.29Z"/>
  <path class="cls-5" d="M229.95,169.2L173.53,29.32c-31.23,13.22-59.44,32.19-83.41,55.5l106.51,106.52c9.86-9.29,21.03-16.71,33.31-22.13Z"/>
  <path class="cls-5" d="M161.8,252.34c1.27-5.66,2.93-11.19,4.99-16.56L28.05,176.74c-11.92,29.2-18.85,60.92-19.8,94.12,15.81-10.63,56.54-35.89,86.89-35.89,12.2,0,36.62,7.33,66.67,17.38Z"/>
  <path class="cls-5" d="M360.56,191.18l106.53-106.53c-22.81-22.15-49.49-40.32-78.93-53.39l-58.98,138.71c11.64,5.39,22.16,12.51,31.37,21.21Z"/>
  <path class="cls-5" d="M380.77,28.1c-30.38-12.42-63.5-19.46-98.18-19.95v150.75c13.59.44,26.71,3.1,39.2,7.94l58.98-138.74Z"/>
  <path class="cls-5" d="M388.32,230.27l139.91-56.35c-13.19-31.29-32.13-59.56-55.45-83.58l-106.54,106.54c9.28,9.85,16.69,21.06,22.08,33.39Z"/>
  <path class="cls-5" d="M274.54,158.89V8.15c-32.93.5-64.43,6.91-93.52,18.21l56.4,139.83c11.89-4.43,24.34-6.88,37.12-7.3Z"/>
  <path class="cls-5" d="M531.19,181.41l-139.88,56.33c.91,2.44,1.74,4.92,2.49,7.45,36.14-10.51,66.25-5.33,108.56,16.21,15.67,8.03,31.39,15.5,46.87,22.33.03-1.68.13-3.34.13-5.02,0-34.29-6.48-67.07-18.16-97.29Z"/>
  <path class="cls-3" d="M10.57,315.15c2.14,15.8,5.61,31.17,10.36,45.99l67.45-45.99H10.57Z"/>
  <path class="cls-3" d="M183.82,315.15l-85.68,164.95c16.24,14.58,34.25,27.21,53.66,37.56l58.11-202.51h-26.09Z"/>
  <path class="cls-3" d="M146.26,315.15l-95.32,109.49c11.7,18.19,25.5,34.89,41.09,49.76l82.72-159.25h-28.49Z"/>
  <path class="cls-3" d="M102.66,315.15l-79.05,53.9c6.04,17,13.71,33.22,22.86,48.47l89.12-102.37h-32.93Z"/>
  <path class="cls-3" d="M421.8,315.15l89.12,102.37c9.15-15.25,16.82-31.47,22.86-48.47l-79.05-53.9h-32.93Z"/>
  <path class="cls-3" d="M536.46,361.13c4.75-14.82,8.22-30.19,10.36-45.99h-77.8l67.45,45.99Z"/>
  <path class="cls-3" d="M223.04,543.56c16.7,3.51,33.97,5.42,51.64,5.68v-234.1h-23.63l-28.01,228.42Z"/>
  <path class="cls-3" d="M282.72,315.15v234.1c17.67-.26,34.94-2.17,51.64-5.68l-28.01-228.42h-23.63Z"/>
  <path class="cls-3" d="M218.28,315.15l-59.18,206.25c17.69,8.75,36.46,15.6,56.06,20.34l27.78-226.59h-24.66Z"/>
  <path class="cls-3" d="M382.64,315.15l82.72,159.25c15.58-14.87,29.39-31.57,41.09-49.76l-95.32-109.48h-28.49Z"/>
  <path class="cls-3" d="M314.46,315.15l27.78,226.59c19.6-4.74,38.37-11.59,56.06-20.34l-59.18-206.25h-24.66Z"/>
  <path class="cls-3" d="M347.49,315.15l58.11,202.51c19.41-10.35,37.42-22.98,53.66-37.56l-85.68-164.95h-26.09Z"/>
  <path class="cls-1" d="M278.7,0C125.02,0,0,125.02,0,278.69s125.02,278.7,278.7,278.7,278.69-125.02,278.69-278.7S432.37,0,278.7,0ZM528.23,173.92l-139.91,56.35c-5.39-12.33-12.8-23.53-22.08-33.39l106.54-106.54c23.31,24.02,42.26,52.29,55.45,83.58ZM467.09,84.65l-106.53,106.53c-9.21-8.71-19.73-15.82-31.37-21.21l58.98-138.71c29.44,13.08,56.12,31.24,78.93,53.39ZM282.58,8.15c34.68.49,67.8,7.53,98.18,19.95l-58.98,138.74c-12.49-4.84-25.62-7.5-39.2-7.94V8.15ZM322.38,175.72c13.41,5.68,25.31,13.73,35.4,23.96,10.8,10.73,19.09,23.27,24.68,37.33,1.42,3.43,2.61,7,3.67,10.61-7.63,2.62-15.53,5.82-23.94,9.77-2.47,1.16-4.93,2.26-7.38,3.34-8.53-2.97-16.68-6.62-24.57-10.19-20.93-9.47-40.71-18.42-64.9-13.32-25.83,5.44-60.51,23.19-68.15,27.2-.93-.32-1.88-.64-2.81-.96-8.57-2.94-16.9-5.81-24.9-8.52,4.49-20.85,14.76-39.86,29.96-55.13,10.55-10.61,22.82-18.83,36.51-24.44l.81-.3c13.26-5.45,27.33-8.22,41.95-8.22s29.86,2.99,43.68,8.88ZM344,265.25c-39.14,15.71-72.26,21.29-77.62,22.13-19.22-5.96-39.16-12.68-58.6-19.34,13.2-6.56,39.41-18.79,59.21-22.96,21.62-4.55,40.23,3.87,59.93,12.78,5.53,2.5,11.21,5.04,17.09,7.4ZM274.54,8.15v150.73c-12.78.42-25.23,2.88-37.12,7.3L181.01,26.36c29.1-11.3,60.6-17.71,93.52-18.21ZM173.53,29.32l56.42,139.88c-12.28,5.42-23.46,12.85-33.31,22.13l-106.51-106.52c23.96-23.31,52.17-42.28,83.41-55.5ZM84.44,90.52l106.55,106.55c-8.72,9.35-15.81,19.89-21.09,31.29L31.21,169.34c13.04-29.39,31.15-56.03,53.23-78.82ZM28.05,176.74l138.74,59.04c-2.05,5.37-3.72,10.9-4.99,16.56-30.04-10.05-54.47-17.38-66.67-17.38-30.35,0-71.08,25.26-86.89,35.89.95-33.21,7.88-64.93,19.8-94.12ZM10.57,315.15h77.81l-67.45,45.99c-4.75-14.82-8.22-30.19-10.36-45.99ZM23.61,369.04l79.05-53.9h32.93l-89.12,102.37c-9.15-15.25-16.82-31.47-22.86-48.47ZM50.94,424.63l95.32-109.49h28.49l-82.72,159.25c-15.58-14.87-29.39-31.57-41.09-49.76ZM98.13,480.1l85.68-164.95h26.09l-58.11,202.51c-19.41-10.35-37.42-22.98-53.66-37.56ZM159.09,521.4l59.18-206.25h24.66l-27.78,226.59c-19.6-4.74-38.37-11.59-56.06-20.34ZM274.67,549.24c-17.67-.26-34.94-2.17-51.64-5.68l28.01-228.42h23.63v234.1ZM9.55,307.1c-.91-8.67-1.38-17.47-1.45-26.36,9.35-6.54,55.55-37.72,87.04-37.72,15.03,0,54.66,13.62,96.62,28.04,38.3,13.16,79.81,27.41,114.88,36.05H9.55ZM282.72,549.24v-234.1h23.63l28.01,228.42c-16.7,3.51-33.97,5.42-51.64,5.68ZM342.24,541.74l-27.78-226.59h24.66l59.18,206.25c-17.69,8.75-36.46,15.6-56.06,20.34ZM405.6,517.66l-58.11-202.51h26.09l85.68,164.95c-16.24,14.58-34.25,27.21-53.66,37.56ZM465.36,474.39l-82.72-159.25h28.49l95.32,109.48c-11.7,18.19-25.5,34.89-41.09,49.76ZM510.92,417.51l-89.12-102.37h32.93l79.05,53.9c-6.04,17-13.71,33.22-22.86,48.47ZM536.46,361.13l-67.45-45.99h77.8c-2.14,15.8-5.61,31.17-10.36,45.99ZM547.85,307.1h-189.3c-18.96,0-45.86-6.07-75.57-14.71,18.22-3.97,49.54-12.26,82.61-27.72,50.06-23.47,81.16-22.55,133.1,3.89,16.81,8.62,33.72,16.63,50.31,23.86-.25,4.93-.64,9.82-1.15,14.68ZM502.35,261.39c-42.31-21.54-72.41-26.72-108.56-16.21-.75-2.53-1.58-5-2.49-7.45l139.88-56.33c11.68,30.21,18.16,63,18.16,97.29,0,1.68-.1,3.34-.13,5.02-15.48-6.82-31.2-14.29-46.87-22.33Z"/>
</svg>