<?xml version="1.0" encoding="UTF-8"?>
<svg id="Layer_1" data-name="Layer 1" xmlns="http://www.w3.org/2000/svg" viewBox="0 0 740.39 574.52">
  <defs>
    <style>
      .cls-1 {
        fill: #0c4333;
      }

      .cls-2 {
        fill: #ffc90e;
      }

      .cls-3 {
        fill: #41aa4b;
      }

      .cls-4 {
        fill: #237529;
      }

      .cls-5 {
        fill: #ffed10;
      }
    </style>
  </defs>
  <g>
    <path class="cls-2" d="M338.09,131.64c-10.27,4.21-19.49,10.38-27.4,18.34-11.41,11.46-19.12,25.73-22.49,41.38,6.01,2.03,12.26,4.18,18.69,6.39.7.24,1.41.48,2.11.72,5.74-3.01,31.77-16.34,51.16-20.42,18.16-3.82,33.01,2.89,48.72,10,5.92,2.68,12.04,5.42,18.44,7.65,1.84-.81,3.69-1.64,5.54-2.5,6.31-2.96,12.25-5.37,17.97-7.33-.8-2.71-1.69-5.38-2.76-7.96-4.19-10.55-10.42-19.97-18.52-28.02-7.57-7.68-16.51-13.72-26.57-17.98-10.38-4.43-21.41-6.67-32.79-6.67s-21.54,2.08-31.49,6.17l-.61.23Z"/>
    <g>
      <path class="cls-4" d="M361.4,183.97c-14.86,3.13-34.54,12.31-44.44,17.24,14.59,5,29.56,10.04,43.99,14.52,4.03-.63,28.89-4.82,58.27-16.61-4.41-1.77-8.68-3.67-12.83-5.55-14.79-6.69-28.75-13.01-44.99-9.59Z"/>
      <path class="cls-4" d="M304.93,203.47c-31.5-10.82-61.25-21.05-72.53-21.05-23.64,0-58.32,23.41-65.34,28.32.05,6.68.4,13.28,1.09,19.79h223.02c-26.32-6.48-57.49-17.18-86.24-27.06Z"/>
      <path class="cls-4" d="M435.42,198.68c-24.82,11.6-48.34,17.83-62.01,20.81,22.3,6.49,42.49,11.04,56.73,11.04h142.1c.38-3.65.68-7.32.86-11.02-12.45-5.43-25.14-11.44-37.77-17.91-38.99-19.85-62.34-20.54-99.91-2.92Z"/>
    </g>
    <g>
      <path class="cls-5" d="M304.36,147.94l-79.99-79.99c-16.58,17.11-30.17,37.11-39.96,59.17l104.12,44.31c3.96-8.56,9.28-16.47,15.83-23.49Z"/>
      <path class="cls-5" d="M333.6,127.01l-42.35-105.01c-23.45,9.92-44.62,24.16-62.61,41.66l79.96,79.96c7.4-6.97,15.79-12.54,25.01-16.61Z"/>
      <path class="cls-5" d="M282.45,189.43c.95-4.25,2.2-8.4,3.74-12.43l-104.15-44.32c-8.95,21.92-14.15,45.73-14.87,70.66,11.87-7.98,42.44-26.94,65.23-26.94,9.15,0,27.49,5.5,50.05,13.04Z"/>
      <path class="cls-5" d="M431.65,143.52l79.97-79.97c-17.12-16.63-37.15-30.26-59.25-40.08l-44.27,104.13c8.74,4.05,16.64,9.39,23.55,15.92Z"/>
      <path class="cls-5" d="M446.82,21.09c-22.81-9.32-47.67-14.61-73.7-14.98v113.16c10.2.33,20.05,2.33,29.43,5.96l44.27-104.15Z"/>
      <path class="cls-5" d="M452.49,172.86l105.02-42.3c-9.9-23.49-24.12-44.71-41.62-62.74l-79.98,79.98c6.97,7.4,12.53,15.81,16.58,25.06Z"/>
      <path class="cls-5" d="M367.07,119.27V6.12c-24.72.38-48.36,5.18-70.21,13.67l42.34,104.97c8.93-3.32,18.27-5.16,27.87-5.48Z"/>
      <path class="cls-5" d="M559.73,136.18l-105,42.28c.68,1.83,1.3,3.69,1.87,5.59,27.13-7.89,49.73-4,81.49,12.17,11.76,6.03,23.57,11.64,35.18,16.76.02-1.26.1-2.5.1-3.77,0-25.74-4.86-50.35-13.63-73.03Z"/>
    </g>
    <g>
      <path class="cls-3" d="M168.92,236.57c1.6,11.86,4.21,23.4,7.77,34.52l50.63-34.52h-58.41Z"/>
      <path class="cls-3" d="M298.97,236.57l-64.32,123.83c12.19,10.94,25.71,20.43,40.28,28.19l43.62-152.02h-19.58Z"/>
      <path class="cls-3" d="M270.78,236.57l-71.56,82.19c8.78,13.66,19.15,26.19,30.84,37.35l62.09-119.54h-21.38Z"/>
      <path class="cls-3" d="M238.05,236.57l-59.34,40.46c4.53,12.76,10.29,24.94,17.16,36.39l66.9-76.84h-24.72Z"/>
      <path class="cls-3" d="M477.62,236.57l66.9,76.84c6.87-11.45,12.63-23.63,17.16-36.39l-59.34-40.46h-24.72Z"/>
      <path class="cls-3" d="M563.69,271.09c3.57-11.12,6.17-22.66,7.77-34.52h-58.41l50.63,34.52Z"/>
      <path class="cls-3" d="M328.41,408.04c12.54,2.63,25.5,4.07,38.76,4.26v-175.73h-17.74l-21.02,171.47Z"/>
      <path class="cls-3" d="M373.21,236.57v175.73c13.26-.2,26.23-1.63,38.76-4.26l-21.02-171.47h-17.74Z"/>
      <path class="cls-3" d="M324.84,236.57l-44.43,154.83c13.28,6.57,27.37,11.71,42.08,15.27l20.86-170.1h-18.51Z"/>
      <path class="cls-3" d="M448.22,236.57l62.09,119.54c11.7-11.16,22.06-23.7,30.84-37.35l-71.55-82.19h-21.38Z"/>
      <path class="cls-3" d="M397.04,236.57l20.86,170.1c14.71-3.55,28.8-8.7,42.08-15.27l-44.43-154.83h-18.51Z"/>
      <path class="cls-3" d="M421.83,236.57l43.62,152.02c14.57-7.77,28.09-17.25,40.28-28.2l-64.32-123.82h-19.58Z"/>
    </g>
    <path class="cls-1" d="M370.19,0c-115.36,0-209.21,93.85-209.21,209.21s93.85,209.21,209.21,209.21,209.21-93.85,209.21-209.21S485.55,0,370.19,0ZM557.51,130.56l-105.02,42.3c-4.05-9.26-9.61-17.67-16.58-25.06l79.98-79.98c17.5,18.03,31.72,39.25,41.62,62.74ZM511.62,63.55l-79.97,79.97c-6.91-6.53-14.81-11.88-23.55-15.92l44.27-104.13c22.1,9.82,42.13,23.45,59.25,40.08ZM373.11,6.11c26.04.37,50.9,5.65,73.7,14.98l-44.27,104.15c-9.38-3.63-19.23-5.63-29.43-5.96V6.11ZM402.98,131.91c10.06,4.26,19,10.31,26.57,17.98,8.11,8.05,14.33,17.47,18.52,28.02,1.07,2.58,1.96,5.25,2.76,7.96-5.73,1.96-11.66,4.37-17.97,7.33-1.86.87-3.7,1.7-5.54,2.5-6.41-2.23-12.52-4.97-18.44-7.65-15.71-7.11-30.56-13.82-48.72-10-19.39,4.08-45.42,17.41-51.16,20.42-.7-.24-1.41-.48-2.11-.72-6.43-2.21-12.69-4.36-18.69-6.39,3.37-15.65,11.08-29.92,22.49-41.38,7.92-7.97,17.13-14.14,27.4-18.34l.61-.23c9.95-4.09,20.52-6.17,31.49-6.17s22.41,2.24,32.79,6.67ZM419.22,199.12c-29.38,11.79-54.24,15.98-58.27,16.61-14.43-4.48-29.4-9.52-43.99-14.52,9.91-4.93,29.58-14.11,44.44-17.24,16.23-3.41,30.2,2.9,44.99,9.59,4.15,1.88,8.42,3.78,12.83,5.55ZM367.07,6.12v113.15c-9.59.32-18.94,2.16-27.87,5.48l-42.34-104.97c21.84-8.48,45.49-13.29,70.21-13.67ZM291.25,22.01l42.35,105.01c-9.22,4.07-17.61,9.64-25.01,16.61l-79.96-79.96c17.99-17.5,39.17-31.74,62.61-41.66ZM224.37,67.95l79.99,79.99c-6.55,7.02-11.87,14.93-15.83,23.49l-104.12-44.31c9.79-22.06,23.38-42.06,39.96-59.17ZM182.04,132.67l104.15,44.32c-1.54,4.03-2.79,8.18-3.74,12.43-22.55-7.54-40.89-13.04-50.05-13.04-22.78,0-53.36,18.96-65.23,26.94.71-24.93,5.92-48.74,14.87-70.66ZM168.92,236.57h58.41l-50.63,34.52c-3.57-11.12-6.17-22.66-7.77-34.52ZM178.71,277.03l59.34-40.46h24.72l-66.9,76.84c-6.87-11.45-12.63-23.63-17.16-36.39ZM199.22,318.76l71.56-82.19h21.38l-62.09,119.54c-11.7-11.16-22.06-23.7-30.84-37.35ZM234.65,360.4l64.32-123.83h19.58l-43.62,152.02c-14.57-7.77-28.09-17.25-40.28-28.19ZM280.41,391.4l44.43-154.83h18.51l-20.86,170.1c-14.71-3.55-28.8-8.7-42.08-15.27ZM367.17,412.3c-13.26-.2-26.23-1.63-38.76-4.26l21.02-171.47h17.74v175.73ZM168.15,230.53c-.68-6.51-1.04-13.11-1.09-19.79,7.02-4.91,41.7-28.32,65.34-28.32,11.28,0,41.03,10.22,72.53,21.05,28.75,9.88,59.91,20.58,86.24,27.06h-223.02ZM373.21,412.3v-175.73h17.74l21.02,171.47c-12.54,2.63-25.5,4.07-38.76,4.26ZM417.9,406.67l-20.86-170.1h18.51l44.43,154.83c-13.28,6.57-27.37,11.71-42.08,15.27ZM465.46,388.59l-43.62-152.02h19.58l64.32,123.82c-12.19,10.94-25.71,20.43-40.28,28.2ZM510.32,356.11l-62.09-119.54h21.38l71.55,82.19c-8.78,13.66-19.15,26.19-30.84,37.35ZM544.52,313.42l-66.9-76.84h24.72l59.34,40.46c-4.53,12.76-10.29,24.94-17.16,36.39ZM563.69,271.09l-50.63-34.52h58.41c-1.6,11.86-4.21,23.4-7.77,34.52ZM572.24,230.53h-142.1c-14.23,0-34.43-4.55-56.73-11.04,13.68-2.98,37.19-9.21,62.01-20.81,37.58-17.62,60.93-16.93,99.91,2.92,12.62,6.47,25.31,12.48,37.77,17.91-.19,3.7-.48,7.37-.86,11.02ZM538.08,196.22c-31.76-16.17-54.36-20.06-81.49-12.17-.56-1.9-1.18-3.76-1.87-5.59l105-42.28c8.77,22.68,13.63,47.29,13.63,73.03,0,1.26-.07,2.51-.1,3.77-11.62-5.12-23.42-10.73-35.18-16.76Z"/>
  </g>
  <g>
    <g>
      <path class="cls-1" d="M89.91,457.82l-19.14,57.74h-11.38l-14.27-42.73-14.52,42.73h-11.47L0,457.82h11.14l14.35,43.88,14.93-43.88h9.9l14.6,44.13,14.77-44.13h10.23Z"/>
      <path class="cls-1" d="M134.29,502.2h-28.87l-5.69,13.36h-11.05l25.98-57.74h10.56l26.06,57.74h-11.22l-5.77-13.36ZM130.74,493.79l-10.89-25.24-10.81,25.24h21.69Z"/>
      <path class="cls-1" d="M167.45,466.89h-19.14v-9.07h49v9.07h-19.14v48.67h-10.72v-48.67Z"/>
      <path class="cls-1" d="M248.69,506.57v8.99h-43.3v-57.74h42.15v8.99h-31.43v15.01h27.88v8.82h-27.88v15.92h32.58Z"/>
      <path class="cls-1" d="M298.43,515.56l-11.8-16.91c-.5.06-1.24.08-2.23.08h-13.03v16.83h-10.72v-57.74h23.76c5,0,9.36.83,13.07,2.47,3.71,1.65,6.56,4.01,8.54,7.09,1.98,3.08,2.97,6.74,2.97,10.97s-1.06,8.08-3.18,11.22c-2.12,3.14-5.16,5.47-9.12,7.01l13.28,18.97h-11.55ZM294.55,469.86c-2.42-1.98-5.97-2.97-10.64-2.97h-12.54v23.02h12.54c4.67,0,8.22-1,10.64-3.01,2.42-2.01,3.63-4.85,3.63-8.54s-1.21-6.52-3.63-8.5Z"/>
      <path class="cls-1" d="M355.43,466.89h-19.14v-9.07h49v9.07h-19.14v48.67h-10.72v-48.67Z"/>
      <path class="cls-1" d="M431.15,515.56l-11.8-16.91c-.5.06-1.24.08-2.23.08h-13.03v16.83h-10.72v-57.74h23.76c5,0,9.36.83,13.07,2.47s6.56,4.01,8.54,7.09c1.98,3.08,2.97,6.74,2.97,10.97s-1.06,8.08-3.18,11.22c-2.12,3.14-5.16,5.47-9.12,7.01l13.28,18.97h-11.55ZM427.27,469.86c-2.42-1.98-5.97-2.97-10.64-2.97h-12.54v23.02h12.54c4.67,0,8.22-1,10.64-3.01,2.42-2.01,3.63-4.85,3.63-8.54s-1.21-6.52-3.63-8.5Z"/>
      <path class="cls-1" d="M491.12,502.2h-28.87l-5.69,13.36h-11.05l25.98-57.74h10.56l26.06,57.74h-11.22l-5.77-13.36ZM487.57,493.79l-10.89-25.24-10.81,25.24h21.69Z"/>
      <path class="cls-1" d="M515.45,457.82h25.24c6.16,0,11.63,1.2,16.42,3.59,4.78,2.39,8.5,5.77,11.13,10.14,2.64,4.37,3.96,9.42,3.96,15.14s-1.32,10.77-3.96,15.14c-2.64,4.37-6.35,7.75-11.13,10.14-4.78,2.39-10.26,3.59-16.42,3.59h-25.24v-57.74ZM540.2,506.49c4.23,0,7.96-.81,11.18-2.43,3.22-1.62,5.69-3.93,7.42-6.93,1.73-3,2.6-6.48,2.6-10.44s-.87-7.44-2.6-10.44c-1.73-3-4.21-5.31-7.42-6.93-3.22-1.62-6.94-2.43-11.18-2.43h-14.02v39.59h14.02Z"/>
      <path class="cls-1" d="M626.89,506.57v8.99h-43.3v-57.74h42.15v8.99h-31.43v15.01h27.88v8.82h-27.88v15.92h32.58Z"/>
      <path class="cls-1" d="M676.63,515.56l-11.8-16.91c-.5.06-1.24.08-2.23.08h-13.03v16.83h-10.72v-57.74h23.76c5,0,9.36.83,13.07,2.47,3.71,1.65,6.56,4.01,8.54,7.09,1.98,3.08,2.97,6.74,2.97,10.97s-1.06,8.08-3.18,11.22c-2.12,3.14-5.16,5.47-9.12,7.01l13.28,18.97h-11.55ZM672.75,469.86c-2.42-1.98-5.97-2.97-10.64-2.97h-12.54v23.02h12.54c4.67,0,8.22-1,10.64-3.01,2.42-2.01,3.63-4.85,3.63-8.54s-1.21-6.52-3.63-8.5Z"/>
      <path class="cls-1" d="M704.13,514.49c-4.15-1.26-7.44-2.94-9.86-5.03l3.71-8.33c2.36,1.87,5.26,3.39,8.7,4.58,3.44,1.18,6.89,1.77,10.35,1.77,4.29,0,7.49-.69,9.61-2.06,2.12-1.37,3.18-3.19,3.18-5.44,0-1.65-.59-3.01-1.77-4.09-1.18-1.07-2.68-1.91-4.5-2.52-1.81-.6-4.29-1.29-7.42-2.06-4.4-1.04-7.96-2.09-10.68-3.14-2.72-1.04-5.06-2.68-7.01-4.91-1.95-2.23-2.93-5.24-2.93-9.03,0-3.19.87-6.09,2.6-8.7,1.73-2.61,4.34-4.69,7.84-6.23,3.49-1.54,7.77-2.31,12.83-2.31,3.52,0,6.98.44,10.39,1.32,3.41.88,6.35,2.14,8.83,3.79l-3.38,8.33c-2.53-1.49-5.17-2.61-7.92-3.38-2.75-.77-5.42-1.15-8-1.15-4.23,0-7.38.71-9.44,2.14-2.06,1.43-3.09,3.33-3.09,5.69,0,1.65.59,3,1.77,4.04s2.68,1.87,4.5,2.47c1.82.6,4.29,1.29,7.42,2.06,4.29.99,7.81,2.02,10.56,3.09,2.75,1.07,5.1,2.71,7.05,4.91,1.95,2.2,2.93,5.17,2.93,8.91,0,3.19-.87,6.08-2.6,8.66-1.73,2.59-4.36,4.65-7.88,6.19-3.52,1.54-7.81,2.31-12.87,2.31-4.46,0-8.76-.63-12.91-1.9Z"/>
    </g>
    <g>
      <path class="cls-1" d="M103.84,550.19v8.56h11.26v1.99h-11.26v9.24h-2.3v-21.78h14.93v1.99h-12.63Z"/>
      <path class="cls-1" d="M136.1,569.98l-4.98-7c-.56.06-1.14.09-1.74.09h-5.85v6.91h-2.3v-21.78h8.15c2.78,0,4.96.66,6.53,1.99,1.58,1.33,2.36,3.15,2.36,5.48,0,1.7-.43,3.14-1.29,4.31-.86,1.17-2.09,2.02-3.69,2.54l5.32,7.47h-2.52ZM134.27,559.68c1.14-.95,1.71-2.29,1.71-4.01s-.57-3.12-1.71-4.06c-1.14-.94-2.79-1.41-4.95-1.41h-5.79v10.92h5.79c2.16,0,3.81-.48,4.95-1.43Z"/>
      <path class="cls-1" d="M147.38,568.72c-1.75-.96-3.12-2.29-4.11-3.97-.99-1.68-1.48-3.57-1.48-5.66s.49-3.98,1.48-5.66c.98-1.68,2.35-3,4.11-3.97,1.75-.96,3.71-1.45,5.87-1.45s4.1.48,5.83,1.43c1.73.95,3.09,2.28,4.09,3.97,1,1.69,1.49,3.58,1.49,5.68s-.5,3.99-1.49,5.68c-1,1.69-2.36,3.01-4.09,3.97-1.73.95-3.68,1.43-5.83,1.43s-4.11-.48-5.87-1.45ZM157.92,566.95c1.39-.78,2.48-1.86,3.27-3.24.79-1.38,1.18-2.92,1.18-4.62s-.39-3.24-1.18-4.62c-.79-1.38-1.88-2.46-3.27-3.24-1.39-.78-2.95-1.17-4.67-1.17s-3.28.39-4.68,1.17-2.5,1.86-3.3,3.24c-.8,1.38-1.2,2.92-1.2,4.62s.4,3.24,1.2,4.62c.8,1.38,1.9,2.46,3.3,3.24s2.96,1.17,4.68,1.17,3.28-.39,4.67-1.17Z"/>
      <path class="cls-1" d="M192.45,548.2v21.78h-2.21v-17.42l-8.56,14.65h-1.09l-8.56-14.56v17.33h-2.21v-21.78h1.9l9.46,16.15,9.37-16.15h1.9Z"/>
      <path class="cls-1" d="M223.04,559.09h2.21v8.31c-1.02.89-2.22,1.58-3.61,2.05-1.39.48-2.85.72-4.39.72-2.18,0-4.14-.48-5.88-1.43-1.74-.95-3.11-2.28-4.11-3.97-1-1.69-1.49-3.58-1.49-5.68s.5-3.99,1.49-5.68c1-1.69,2.36-3.01,4.11-3.97,1.74-.95,3.71-1.43,5.91-1.43,1.66,0,3.18.26,4.57.79,1.39.53,2.56,1.31,3.52,2.35l-1.43,1.46c-1.72-1.7-3.91-2.55-6.56-2.55-1.76,0-3.36.39-4.78,1.17s-2.54,1.86-3.35,3.24c-.81,1.38-1.21,2.92-1.21,4.62s.4,3.24,1.21,4.61c.81,1.37,1.92,2.45,3.33,3.24,1.41.79,3,1.18,4.76,1.18,2.24,0,4.14-.56,5.69-1.68v-7.34Z"/>
      <path class="cls-1" d="M246.62,569.98l-4.98-7c-.56.06-1.14.09-1.74.09h-5.85v6.91h-2.3v-21.78h8.15c2.78,0,4.96.66,6.53,1.99,1.58,1.33,2.36,3.15,2.36,5.48,0,1.7-.43,3.14-1.29,4.31-.86,1.17-2.09,2.02-3.69,2.54l5.32,7.47h-2.52ZM244.79,559.68c1.14-.95,1.71-2.29,1.71-4.01s-.57-3.12-1.71-4.06c-1.14-.94-2.79-1.41-4.95-1.41h-5.79v10.92h5.79c2.16,0,3.81-.48,4.95-1.43Z"/>
      <path class="cls-1" d="M257.9,568.72c-1.75-.96-3.12-2.29-4.11-3.97-.99-1.68-1.48-3.57-1.48-5.66s.49-3.98,1.48-5.66c.98-1.68,2.35-3,4.11-3.97,1.75-.96,3.71-1.45,5.87-1.45s4.1.48,5.83,1.43c1.73.95,3.09,2.28,4.09,3.97,1,1.69,1.49,3.58,1.49,5.68s-.5,3.99-1.49,5.68c-1,1.69-2.36,3.01-4.09,3.97-1.73.95-3.68,1.43-5.83,1.43s-4.11-.48-5.87-1.45ZM268.43,566.95c1.39-.78,2.48-1.86,3.27-3.24.79-1.38,1.18-2.92,1.18-4.62s-.39-3.24-1.18-4.62c-.79-1.38-1.88-2.46-3.27-3.24-1.39-.78-2.95-1.17-4.67-1.17s-3.28.39-4.68,1.17-2.5,1.86-3.3,3.24c-.8,1.38-1.2,2.92-1.2,4.62s.4,3.24,1.2,4.62c.8,1.38,1.9,2.46,3.3,3.24s2.96,1.17,4.68,1.17,3.28-.39,4.67-1.17Z"/>
      <path class="cls-1" d="M309.6,548.2l-7.34,21.78h-2.43l-6.38-18.57-6.41,18.57h-2.4l-7.34-21.78h2.36l6.29,18.73,6.5-18.73h2.15l6.41,18.82,6.38-18.82h2.21Z"/>
      <path class="cls-1" d="M329.2,567.99v1.99h-15.4v-21.78h14.93v1.99h-12.63v7.75h11.26v1.96h-11.26v8.09h13.1Z"/>
      <path class="cls-1" d="M349.49,569.98l-4.98-7c-.56.06-1.14.09-1.74.09h-5.85v6.91h-2.3v-21.78h8.15c2.78,0,4.96.66,6.53,1.99,1.58,1.33,2.36,3.15,2.36,5.48,0,1.7-.43,3.14-1.29,4.31-.86,1.17-2.09,2.02-3.69,2.54l5.32,7.47h-2.52ZM347.65,559.68c1.14-.95,1.71-2.29,1.71-4.01s-.57-3.12-1.71-4.06c-1.14-.94-2.79-1.41-4.95-1.41h-5.79v10.92h5.79c2.16,0,3.81-.48,4.95-1.43Z"/>
      <path class="cls-1" d="M358.46,569.39c-1.48-.52-2.63-1.2-3.44-2.05l.9-1.77c.79.79,1.84,1.43,3.14,1.91,1.31.49,2.66.73,4.05.73,1.95,0,3.41-.36,4.39-1.07.97-.72,1.46-1.64,1.46-2.78,0-.87-.26-1.57-.79-2.08-.53-.52-1.18-.92-1.94-1.2-.77-.28-1.84-.59-3.2-.92-1.64-.41-2.95-.81-3.92-1.2-.97-.38-1.81-.97-2.5-1.76-.7-.79-1.04-1.86-1.04-3.2,0-1.1.29-2.1.87-3,.58-.9,1.47-1.62,2.68-2.16,1.2-.54,2.7-.81,4.48-.81,1.24,0,2.46.17,3.66.51,1.19.34,2.23.81,3.1,1.42l-.78,1.84c-.91-.6-1.89-1.05-2.92-1.35-1.04-.3-2.05-.45-3.05-.45-1.91,0-3.35.37-4.31,1.1-.96.74-1.45,1.69-1.45,2.85,0,.87.27,1.57.79,2.1.53.53,1.19.93,1.99,1.21.8.28,1.87.59,3.22.92,1.6.39,2.89.78,3.87,1.17.99.38,1.82.96,2.51,1.74s1.03,1.83,1.03,3.16c0,1.1-.29,2.1-.89,3-.59.9-1.5,1.62-2.72,2.15-1.22.53-2.73.79-4.51.79-1.62,0-3.17-.26-4.65-.78Z"/>
      <path class="cls-1" d="M385.36,567.23c.31.32.47.72.47,1.2,0,.25-.04.52-.11.81-.07.29-.18.62-.33,1l-1.31,4.29h-1.49l1.06-4.51c-.33-.1-.6-.3-.81-.58-.21-.28-.31-.62-.31-1.01,0-.48.16-.88.47-1.2.31-.32.71-.48,1.18-.48s.87.16,1.18.48Z"/>
      <path class="cls-1" d="M401.45,550.19v8.56h11.26v1.99h-11.26v9.24h-2.3v-21.78h14.93v1.99h-12.63Z"/>
      <path class="cls-1" d="M422.22,568.72c-1.75-.96-3.12-2.29-4.11-3.97-.99-1.68-1.48-3.57-1.48-5.66s.49-3.98,1.48-5.66c.98-1.68,2.35-3,4.11-3.97,1.75-.96,3.71-1.45,5.87-1.45s4.1.48,5.83,1.43c1.73.95,3.09,2.28,4.09,3.97,1,1.69,1.49,3.58,1.49,5.68s-.5,3.99-1.49,5.68c-1,1.69-2.36,3.01-4.09,3.97-1.73.95-3.68,1.43-5.83,1.43s-4.11-.48-5.87-1.45ZM432.75,566.95c1.39-.78,2.48-1.86,3.27-3.24.79-1.38,1.18-2.92,1.18-4.62s-.39-3.24-1.18-4.62c-.79-1.38-1.88-2.46-3.27-3.24-1.39-.78-2.95-1.17-4.67-1.17s-3.28.39-4.68,1.17-2.5,1.86-3.3,3.24c-.8,1.38-1.2,2.92-1.2,4.62s.4,3.24,1.2,4.62c.8,1.38,1.9,2.46,3.3,3.24s2.96,1.17,4.68,1.17,3.28-.39,4.67-1.17Z"/>
      <path class="cls-1" d="M459.54,569.98l-4.98-7c-.56.06-1.14.09-1.74.09h-5.85v6.91h-2.3v-21.78h8.15c2.78,0,4.96.66,6.53,1.99,1.58,1.33,2.36,3.15,2.36,5.48,0,1.7-.43,3.14-1.29,4.31-.86,1.17-2.09,2.02-3.69,2.54l5.32,7.47h-2.52ZM457.7,559.68c1.14-.95,1.71-2.29,1.71-4.01s-.57-3.12-1.71-4.06c-1.14-.94-2.79-1.41-4.95-1.41h-5.79v10.92h5.79c2.16,0,3.81-.48,4.95-1.43Z"/>
      <path class="cls-1" d="M490.65,559.09h2.21v8.31c-1.02.89-2.22,1.58-3.61,2.05-1.39.48-2.85.72-4.39.72-2.18,0-4.14-.48-5.88-1.43-1.74-.95-3.11-2.28-4.11-3.97-1-1.69-1.49-3.58-1.49-5.68s.5-3.99,1.49-5.68c1-1.69,2.36-3.01,4.11-3.97,1.74-.95,3.71-1.43,5.91-1.43,1.66,0,3.18.26,4.57.79,1.39.53,2.56,1.31,3.52,2.35l-1.43,1.46c-1.72-1.7-3.91-2.55-6.56-2.55-1.76,0-3.36.39-4.78,1.17-1.42.78-2.54,1.86-3.35,3.24-.81,1.38-1.21,2.92-1.21,4.62s.4,3.24,1.21,4.61c.81,1.37,1.92,2.45,3.33,3.24,1.41.79,3,1.18,4.76,1.18,2.24,0,4.14-.56,5.69-1.68v-7.34Z"/>
      <path class="cls-1" d="M514.24,569.98l-4.98-7c-.56.06-1.14.09-1.74.09h-5.85v6.91h-2.3v-21.78h8.15c2.78,0,4.96.66,6.53,1.99,1.58,1.33,2.36,3.15,2.36,5.48,0,1.7-.43,3.14-1.29,4.31-.86,1.17-2.09,2.02-3.69,2.54l5.32,7.47h-2.52ZM512.4,559.68c1.14-.95,1.71-2.29,1.71-4.01s-.57-3.12-1.71-4.06c-1.14-.94-2.79-1.41-4.95-1.41h-5.79v10.92h5.79c2.16,0,3.81-.48,4.95-1.43Z"/>
      <path class="cls-1" d="M525.51,568.72c-1.75-.96-3.12-2.29-4.11-3.97-.99-1.68-1.48-3.57-1.48-5.66s.49-3.98,1.48-5.66c.98-1.68,2.35-3,4.11-3.97,1.75-.96,3.71-1.45,5.87-1.45s4.1.48,5.83,1.43c1.73.95,3.09,2.28,4.09,3.97,1,1.69,1.49,3.58,1.49,5.68s-.5,3.99-1.49,5.68c-1,1.69-2.36,3.01-4.09,3.97-1.73.95-3.68,1.43-5.83,1.43s-4.11-.48-5.87-1.45ZM536.05,566.95c1.39-.78,2.48-1.86,3.27-3.24.79-1.38,1.18-2.92,1.18-4.62s-.39-3.24-1.18-4.62c-.79-1.38-1.88-2.46-3.27-3.24-1.39-.78-2.95-1.17-4.67-1.17s-3.28.39-4.68,1.17c-1.4.78-2.5,1.86-3.3,3.24-.8,1.38-1.2,2.92-1.2,4.62s.4,3.24,1.2,4.62c.8,1.38,1.9,2.46,3.3,3.24,1.4.78,2.96,1.17,4.68,1.17s3.28-.39,4.67-1.17Z"/>
      <path class="cls-1" d="M577.21,548.2l-7.34,21.78h-2.43l-6.38-18.57-6.41,18.57h-2.4l-7.34-21.78h2.36l6.29,18.73,6.5-18.73h2.15l6.41,18.82,6.38-18.82h2.21Z"/>
      <path class="cls-1" d="M596.81,567.99v1.99h-15.4v-21.78h14.93v1.99h-12.63v7.75h11.26v1.96h-11.26v8.09h13.1Z"/>
      <path class="cls-1" d="M617.1,569.98l-4.98-7c-.56.06-1.14.09-1.74.09h-5.85v6.91h-2.3v-21.78h8.15c2.78,0,4.96.66,6.53,1.99,1.58,1.33,2.36,3.15,2.36,5.48,0,1.7-.43,3.14-1.29,4.31-.86,1.17-2.09,2.02-3.69,2.54l5.32,7.47h-2.52ZM615.26,559.68c1.14-.95,1.71-2.29,1.71-4.01s-.57-3.12-1.71-4.06c-1.14-.94-2.79-1.41-4.95-1.41h-5.79v10.92h5.79c2.16,0,3.81-.48,4.95-1.43Z"/>
      <path class="cls-1" d="M626.08,569.39c-1.48-.52-2.63-1.2-3.44-2.05l.9-1.77c.79.79,1.84,1.43,3.14,1.91,1.31.49,2.66.73,4.05.73,1.95,0,3.41-.36,4.39-1.07.97-.72,1.46-1.64,1.46-2.78,0-.87-.27-1.57-.79-2.08-.53-.52-1.18-.92-1.94-1.2-.77-.28-1.84-.59-3.2-.92-1.64-.41-2.95-.81-3.92-1.2-.97-.38-1.81-.97-2.5-1.76-.7-.79-1.04-1.86-1.04-3.2,0-1.1.29-2.1.87-3,.58-.9,1.47-1.62,2.68-2.16,1.2-.54,2.7-.81,4.48-.81,1.24,0,2.46.17,3.65.51,1.19.34,2.23.81,3.1,1.42l-.78,1.84c-.91-.6-1.89-1.05-2.92-1.35-1.04-.3-2.05-.45-3.05-.45-1.91,0-3.35.37-4.31,1.1-.96.74-1.45,1.69-1.45,2.85,0,.87.27,1.57.79,2.1.53.53,1.19.93,1.99,1.21.8.28,1.87.59,3.22.92,1.6.39,2.89.78,3.87,1.17.99.38,1.82.96,2.51,1.74s1.03,1.83,1.03,3.16c0,1.1-.29,2.1-.89,3-.59.9-1.5,1.62-2.72,2.15-1.22.53-2.73.79-4.51.79-1.62,0-3.17-.26-4.65-.78Z"/>
    </g>
  </g>
</svg>